<svg xmlns="http://www.w3.org/2000/svg" viewBox="0 0 256 256" width="256" height="256" role="img" aria-label="Rubble field, 03-monolithic-facet"><title>Rubble field · 03-monolithic-facet</title><polygon points="128,8 232,68 232,188 128,248 24,188 24,68" fill="#192522" stroke="#a4aea1" stroke-width="4" stroke-linejoin="bevel" opacity=".92"/><polygon points="128,22 220,75 220,181 128,234 36,181 36,75" fill="#3b4840" stroke="none" stroke-width="0" stroke-linejoin="bevel" opacity=".7"/><polygon points="128,22 220,75 179,110 128,81 77,110 36,75" fill="#7e8b7b" stroke="none" stroke-width="0" stroke-linejoin="bevel" opacity=".22"/><polygon points="62,139 90,87 120,99 137,143 95,171" fill="#7e8b7b" stroke="#a4aea1" stroke-width="4" stroke-linejoin="bevel" /><polygon points="138,84 183,99 199,145 164,161 130,131" fill="#3b4840" stroke="#a4aea1" stroke-width="4" stroke-linejoin="bevel" /><polygon points="74,171 106,154 129,184 108,204" fill="#192522" stroke="#a4aea1" stroke-width="3" stroke-linejoin="bevel" /><path d="M92 96l31 46m39-37 16 38m-89 23 30 19" fill="none" stroke="#ff795a" stroke-width="3" stroke-linejoin="bevel" stroke-linecap="square" /></svg>