<svg xmlns="http://www.w3.org/2000/svg" viewBox="0 0 512 384" width="512" height="384" role="img" aria-label="COMMAND HUB oblique view, Modular Stealth Geometry">
  <title>COMMAND HUB – Modular Stealth Geometry – Three quarter view</title>
  <defs>
    <linearGradient id="body-grad" x1="0" y1="0" x2=".82" y2="1">
      <stop offset="0" stop-color="#849aa0"/>
      <stop offset=".31" stop-color="#52636b"/>
      <stop offset=".78" stop-color="#26343b"/>
      <stop offset="1" stop-color="#101a20"/>
    </linearGradient>
    <filter id="vehicle-shadow" x="-30%" y="-30%" width="160%" height="180%">
      <feDropShadow dx="6" dy="13" stdDeviation="9" flood-color="#000" flood-opacity=".32"/>
    </filter>
  </defs>
  <g transform="translate(125 47) matrix(1.23 .21 -.39 .83 0 0) translate(128 128) scale(0.94) translate(-128 -128)">
    <g transform="translate(0 30)" opacity=".98"><polygon points="128,24 196,61 220,128 196,195 128,232 60,195 36,128 60,61" fill="#101a20" stroke="#9fb5b3" stroke-width="2.4" stroke-linejoin="bevel" /><polygon points="44,177 69,210 94,213 82,189" fill="#101a20" stroke="#9fb5b3" stroke-width="2" stroke-linejoin="bevel" /><polygon points="212,177 187,210 162,213 174,189" fill="#101a20" stroke="#9fb5b3" stroke-width="2" stroke-linejoin="bevel" /><polygon points="106,208 128,228 150,208" fill="#101a20" stroke="#9fb5b3" stroke-width="2" stroke-linejoin="bevel" /></g>
    <g transform="translate(0 14)" opacity=".94"><polygon points="128,24 196,61 220,128 196,195 128,232 60,195 36,128 60,61" fill="#101a20" stroke="#9fb5b3" stroke-width="2.4" stroke-linejoin="bevel" /></g>
    <g filter="url(#vehicle-shadow)"><polygon points="44,177 69,210 94,213 82,189" fill="#101a20" stroke="#9fb5b3" stroke-width="2" stroke-linejoin="bevel" /><polygon points="212,177 187,210 162,213 174,189" fill="#101a20" stroke="#9fb5b3" stroke-width="2" stroke-linejoin="bevel" /><polygon points="106,208 128,228 150,208" fill="#101a20" stroke="#9fb5b3" stroke-width="2" stroke-linejoin="bevel" /><polygon points="128,24 196,61 220,128 196,195 128,232 60,195 36,128 60,61" fill="url(#body-grad)" stroke="#9fb5b3" stroke-width="2.2" stroke-linejoin="bevel" /><polygon points="128,40 184,70 201,128 184,186 128,216 72,186 55,128 72,70" fill="#52636b" stroke="#9fb5b3" stroke-width="2.2" stroke-linejoin="bevel" /><polygon points="128,57 169,81 184,128 169,175 128,199 87,175 72,128 87,81" fill="#101a20" stroke="#9fb5b3" stroke-width="2" stroke-linejoin="bevel" /><polygon points="128,73 163,92 175,128 163,164 128,183 93,164 81,128 93,92" fill="#26343b" stroke="#9fb5b3" stroke-width="2" stroke-linejoin="bevel" /><polygon points="128,95 158,113 147,153 109,153 98,113" fill="#67d8e7" stroke="#101a20" stroke-width="3" stroke-linejoin="bevel" /><polygon points="128,103 147,114 141,143 115,143 109,114" fill="#101a20" stroke="#9fb5b3" stroke-width="1.4" stroke-linejoin="bevel" /><path d="M72 73L72 54" fill="none" stroke="#9fb5b3" stroke-width="2" stroke-linecap="square" /><path d="M108 73L108 54" fill="none" stroke="#9fb5b3" stroke-width="2" stroke-linecap="square" /><path d="M144 73L144 54" fill="none" stroke="#9fb5b3" stroke-width="2" stroke-linecap="square" /><path d="M180 73L180 54" fill="none" stroke="#9fb5b3" stroke-width="2" stroke-linecap="square" /><rect x="70" y="144" width="5" height="24" fill="#c9ef54" stroke="#101a20" stroke-width="1" /><rect x="181" y="144" width="5" height="24" fill="#c9ef54" stroke="#101a20" stroke-width="1" /><path d="M105 184L128 208" fill="none" stroke="#67d8e7" stroke-width="1.6" stroke-linecap="square" /><path d="M151 184L128 208" fill="none" stroke="#67d8e7" stroke-width="1.6" stroke-linecap="square" /><path d="M103 175L107 179" fill="none" stroke="#9fb5b3" stroke-width="0.8" stroke-linecap="square" opacity=".48"/><path d="M117 175L121 179" fill="none" stroke="#9fb5b3" stroke-width="0.8" stroke-linecap="square" opacity=".48"/><path d="M131 175L135 179" fill="none" stroke="#9fb5b3" stroke-width="0.8" stroke-linecap="square" opacity=".48"/><path d="M145 175L149 179" fill="none" stroke="#9fb5b3" stroke-width="0.8" stroke-linecap="square" opacity=".48"/></g>
  </g></svg>