<svg xmlns="http://www.w3.org/2000/svg" viewBox="0 0 256 256" width="256" height="256" role="img" aria-label="FORGE ENGINEER top view, Modular Stealth Geometry">
  <title>FORGE ENGINEER – Modular Stealth Geometry – Top view</title>
  <g transform="translate(128 128) scale(1.04) translate(-128 -128)">
    <rect x="30" y="57" width="26" height="148" fill="#101a20" stroke="#9fb5b3" stroke-width="3" /><rect x="35" y="67" width="16" height="128" fill="#26343b" stroke="#9fb5b3" stroke-width="1" /><path d="M34 78L52 78" fill="none" stroke="#849aa0" stroke-width="1.6" stroke-linecap="square" /><path d="M34 102L52 102" fill="none" stroke="#849aa0" stroke-width="1.6" stroke-linecap="square" /><path d="M34 126L52 126" fill="none" stroke="#849aa0" stroke-width="1.6" stroke-linecap="square" /><path d="M34 150L52 150" fill="none" stroke="#849aa0" stroke-width="1.6" stroke-linecap="square" /><path d="M34 174L52 174" fill="none" stroke="#849aa0" stroke-width="1.6" stroke-linecap="square" /><rect x="200" y="57" width="26" height="148" fill="#101a20" stroke="#9fb5b3" stroke-width="3" /><rect x="205" y="67" width="16" height="128" fill="#26343b" stroke="#9fb5b3" stroke-width="1" /><path d="M204 78L222 78" fill="none" stroke="#849aa0" stroke-width="1.6" stroke-linecap="square" /><path d="M204 102L222 102" fill="none" stroke="#849aa0" stroke-width="1.6" stroke-linecap="square" /><path d="M204 126L222 126" fill="none" stroke="#849aa0" stroke-width="1.6" stroke-linecap="square" /><path d="M204 150L222 150" fill="none" stroke="#849aa0" stroke-width="1.6" stroke-linecap="square" /><path d="M204 174L222 174" fill="none" stroke="#849aa0" stroke-width="1.6" stroke-linecap="square" /><polygon points="128,17 181,26 209,48 223,94 222,175 204,223 175,239 81,239 52,223 34,175 33,94 47,48 75,26" fill="#26343b" stroke="#9fb5b3" stroke-width="3.5" stroke-linejoin="bevel" /><polygon points="128,43 165,58 173,111 153,188 128,210 103,188 83,111 91,58" fill="#52636b" stroke="#9fb5b3" stroke-width="2" stroke-linejoin="bevel" /><polygon points="70,73 86,61 102,83 102,184 72,199 59,163" fill="#849aa0" stroke="#101a20" stroke-width="2" stroke-linejoin="bevel" /><polygon points="186,73 170,61 154,83 154,184 184,199 197,163" fill="#849aa0" stroke="#101a20" stroke-width="2" stroke-linejoin="bevel" /><polygon points="128,50 152,71 154,154 128,189 102,154 104,71" fill="#26343b" stroke="#9fb5b3" stroke-width="1.6" stroke-linejoin="bevel" /><rect x="113" y="83" width="30" height="88" fill="#101a20" stroke="#9fb5b3" stroke-width="2" /><polygon points="111,60 118,49 128,73 138,49 145,60 137,95 119,95" fill="#c9ef54" stroke="#101a20" stroke-width="2" stroke-linejoin="bevel" /><path d="M96 91L83 123" fill="none" stroke="#67d8e7" stroke-width="4" stroke-linecap="square" /><path d="M160 91L173 123" fill="none" stroke="#67d8e7" stroke-width="4" stroke-linecap="square" /><rect x="70" y="144" width="5" height="24" fill="#c9ef54" stroke="#101a20" stroke-width="1" /><rect x="181" y="144" width="5" height="24" fill="#c9ef54" stroke="#101a20" stroke-width="1" /><path d="M105 184L128 208" fill="none" stroke="#67d8e7" stroke-width="1.6" stroke-linecap="square" /><path d="M151 184L128 208" fill="none" stroke="#67d8e7" stroke-width="1.6" stroke-linecap="square" /><polygon points="128,17 181,26 209,48 223,94 222,175 204,223 175,239 81,239 52,223 34,175 33,94 47,48 75,26" fill="none" stroke="#849aa0" stroke-width="1.1" stroke-linejoin="bevel" transform="translate(1.4 -1.1)" opacity=".62"/><path d="M98 57L106 65" fill="none" stroke="#9fb5b3" stroke-width="0.9" stroke-linecap="square" opacity=".45"/><path d="M105 61L113 69" fill="none" stroke="#9fb5b3" stroke-width="0.9" stroke-linecap="square" opacity=".45"/><path d="M112 65L120 73" fill="none" stroke="#9fb5b3" stroke-width="0.9" stroke-linecap="square" opacity=".45"/>
  </g></svg>