<svg xmlns="http://www.w3.org/2000/svg" viewBox="0 0 256 256" width="256" height="256" role="img" aria-label="LIGHT SKIMMER top view, Industrial Exoframe">
  <title>LIGHT SKIMMER – Industrial Exoframe – Top view</title>
  <g transform="translate(128 128) scale(0.67) translate(-128 -128)">
    <polygon points="65,70 49,114 69,181 83,188 88,101" fill="#17242b" stroke="#a9b8bb" stroke-width="3" stroke-linejoin="bevel" /><polygon points="191,70 207,114 187,181 173,188 168,101" fill="#17242b" stroke="#a9b8bb" stroke-width="3" stroke-linejoin="bevel" /><path d="M49 123L62 179" fill="none" stroke="#f4a24d" stroke-width="3" stroke-linecap="square" /><path d="M207 123L194 179" fill="none" stroke="#f4a24d" stroke-width="3" stroke-linecap="square" /><polygon points="128,25 172,56 210,118 177,205 128,230 79,205 46,118 84,56" fill="#35424b" stroke="#a9b8bb" stroke-width="3.5" stroke-linejoin="bevel" /><rect x="79" y="56" width="98" height="149" fill="#17242b" stroke="#a9b8bb" stroke-width="2" /><rect x="91" y="66" width="74" height="126" fill="#71818a" stroke="#17242b" stroke-width="2" /><rect x="70" y="62" width="11" height="147" fill="#acb6b7" stroke="#17242b" stroke-width="1" /><rect x="175" y="62" width="11" height="147" fill="#acb6b7" stroke="#17242b" stroke-width="1" /><rect x="73" y="72" width="110" height="8" fill="#35424b" stroke="#a9b8bb" stroke-width="1.5" /><rect x="73" y="129" width="110" height="8" fill="#35424b" stroke="#a9b8bb" stroke-width="1.5" /><rect x="73" y="184" width="110" height="8" fill="#35424b" stroke="#a9b8bb" stroke-width="1.5" /><rect x="103" y="91" width="50" height="75" fill="#35424b" stroke="#a9b8bb" stroke-width="2" /><polygon points="128,81 150,100 144,135 128,149 112,135 106,100" fill="#17242b" stroke="#a9b8bb" stroke-width="2" stroke-linejoin="bevel" /><polygon points="128,95 141,106 137,128 128,136 119,128 115,106" fill="#f4a24d" stroke="#17242b" stroke-width="1.5" stroke-linejoin="bevel" /><path d="M88 104L106 88" fill="none" stroke="#f1d09a" stroke-width="2" stroke-linecap="square" /><path d="M168 104L150 88" fill="none" stroke="#f1d09a" stroke-width="2" stroke-linecap="square" /><rect x="70" y="95" width="6" height="6" fill="#f4a24d" stroke="#17242b" stroke-width="1" /><rect x="70" y="158" width="6" height="6" fill="#f4a24d" stroke="#17242b" stroke-width="1" /><rect x="184" y="95" width="6" height="6" fill="#f4a24d" stroke="#17242b" stroke-width="1" /><rect x="184" y="158" width="6" height="6" fill="#f4a24d" stroke="#17242b" stroke-width="1" /><path d="M89 61L89 195" fill="none" stroke="#a9b8bb" stroke-width="1.7" stroke-linecap="square" /><path d="M167 61L167 195" fill="none" stroke="#a9b8bb" stroke-width="1.7" stroke-linecap="square" /><polygon points="128,25 172,56 210,118 177,205 128,230 79,205 46,118 84,56" fill="none" stroke="#acb6b7" stroke-width="1.1" stroke-linejoin="bevel" transform="translate(1.4 -1.1)" opacity=".62"/><path d="M98 57L106 65" fill="none" stroke="#a9b8bb" stroke-width="0.9" stroke-linecap="square" opacity=".45"/><path d="M105 61L113 69" fill="none" stroke="#a9b8bb" stroke-width="0.9" stroke-linecap="square" opacity=".45"/><path d="M112 65L120 73" fill="none" stroke="#a9b8bb" stroke-width="0.9" stroke-linecap="square" opacity=".45"/>
  </g></svg>