<?xml version="1.0" encoding="UTF-8"?>
<svg xmlns="http://www.w3.org/2000/svg" width="1024" height="768" viewBox="0 0 512 384" role="img" aria-label="STRATEGIC MISSILE CARRIER — TABLETOP / TACTICAL MINIATURES three-quarter view">
  <style>
  .ground-shadow{fill:#232a23;opacity:.17}.person-shadow{fill:#232a23;opacity:.22}
  .right-face{fill:#69765a;stroke:#232a23;stroke-width:3}.rear-face{fill:#232a23;stroke:#232a23;stroke-width:3}
  .track-side,.track-rear{fill:#232a23;stroke:#232a23;stroke-width:2}.track-line{fill:none;stroke:#e9e1c7;stroke-width:1.5;opacity:.65}
  .upper-top{fill:#e9e1c7;stroke:#232a23;stroke-width:3}.upper-side{fill:#69765a;stroke:#232a23;stroke-width:3}
  .hover-glow,.thruster{fill:none;stroke:#b99658;stroke-width:4;stroke-linecap:round}
  .projected-top{stroke:#232a23;stroke-width:2.4;stroke-linejoin:round}.projected-top *{vector-effect:non-scaling-stroke}
  .body{fill:#e9e1c7}.shell{fill:#69765a}.turret{fill:#e9e1c7}.track{fill:#232a23}.port{fill:#e9e1c7}.accent{fill:#b99658}
  .detail{fill:none;stroke:#232a23;stroke-width:1.6}.accent-line{fill:none;stroke:#b99658;stroke-width:3}
  .inf-figure{fill:#69765a;stroke:#232a23;stroke-width:2.4}.inf-head,.inf-rifle{fill:#232a23;stroke:#232a23;stroke-width:1.5}
  .inf-detail{fill:none;stroke:#232a23;stroke-width:1.6}.person-depth .inf-figure{fill:#232a23}.person-depth .inf-head,.person-depth .inf-rifle{fill:#232a23}
  .library-marker{fill:#232a23;stroke:#e9e1c7;stroke-width:3;paint-order:stroke fill;font:800 78px Arial,Helvetica,sans-serif;text-anchor:middle}
  </style><ellipse class="ground-shadow" cx="263" cy="326" rx="174" ry="22"/><polygon class="right-face" points="368.0,136.6 302.0,248.8 302.0,291.8 368.0,179.6"/><polygon class="rear-face" points="302.0,248.8 110.0,221.8 110.0,264.8 302.0,291.8"/><polygon class="track-side" points="204.6,137.6 152.6,225.9 152.6,268.9 204.6,180.6"/><polygon class="track-rear" points="152.6,225.9 111.0,220.1 111.0,263.1 152.6,268.9"/><path class="track-line" d="M192.6 157.9L187.6 166.4m0 0v43"/><path class="track-line" d="M177.6 183.4L172.6 191.9m0 0v43"/><path class="track-line" d="M162.6 208.9L157.6 217.4m0 0v43"/><polygon class="track-side" points="355.0,158.7 303.0,247.1 303.0,290.1 355.0,201.7"/><polygon class="track-rear" points="303.0,247.1 261.4,241.3 261.4,284.3 303.0,290.1"/><path class="track-line" d="M343.0 179.1L338.0 187.6m0 0v43"/><path class="track-line" d="M328.0 204.6L323.0 213.1m0 0v43"/><path class="track-line" d="M313.0 230.1L308.0 238.6m0 0v43"/><g class="projected-top" transform="matrix(3.2 .45 -1 1.7 130 70)"><g class="unit" aria-label="STRATEGIC MISSILE CARRIER"><g transform="translate(50 0) scale(0.71 1) translate(-50 0)"><rect class="track" x="6" y="14" width="18" height="74" rx="5"/><rect class="track" x="76" y="14" width="18" height="74" rx="5"/><polygon class="shell" points="30,10 70,10 81,24 80,77 73,87 27,87 20,77 19,24"/><path class="detail" d="M26 26L50 19L74 26M27 78L50 84L73 78"/><path class="body" d="M24 34L35 32V54L26 60Z"/><path class="body" d="M65 34L76 32V54L67 60Z"/><rect class="accent" x="35" y="76" width="30" height="4" rx="0"/><path class="accent" d="M27 27L35 24L37 33L29 36ZM73 27L65 24L63 33L71 36Z"/><path class="turret" d="M38 15L43 8H57L62 15V68H38Z"/><rect class="shell" x="44" y="24" width="12" height="27" rx="1"/></g></g></g></svg>
