<svg xmlns="http://www.w3.org/2000/svg" viewBox="0 0 512 384" width="512" height="384" role="img" aria-label="SKIMMER CARRIER oblique view, Industrial Exoframe">
  <title>SKIMMER CARRIER – Industrial Exoframe – Three quarter view</title>
  <defs>
    <linearGradient id="body-grad" x1="0" y1="0" x2=".82" y2="1">
      <stop offset="0" stop-color="#acb6b7"/>
      <stop offset=".31" stop-color="#71818a"/>
      <stop offset=".78" stop-color="#35424b"/>
      <stop offset="1" stop-color="#17242b"/>
    </linearGradient>
    <filter id="vehicle-shadow" x="-30%" y="-30%" width="160%" height="180%">
      <feDropShadow dx="6" dy="13" stdDeviation="9" flood-color="#000" flood-opacity=".32"/>
    </filter>
  </defs>
  <g transform="translate(125 47) matrix(1.23 .21 -.39 .83 0 0) translate(128 128) scale(0.95) translate(-128 -128)">
    <g transform="translate(0 30)" opacity=".98"><polygon points="128,30 184,44 205,72 205,192 182,219 74,219 51,192 51,72 72,44" fill="#17242b" stroke="#a9b8bb" stroke-width="2.4" stroke-linejoin="bevel" /><rect x="49" y="57" width="26" height="148" fill="#17242b" stroke="#a9b8bb" stroke-width="2" /><rect x="54" y="67" width="16" height="128" fill="#35424b" stroke="#a9b8bb" stroke-width="1" /><path d="M53 78L71 78" fill="none" stroke="#acb6b7" stroke-width="1" stroke-linecap="square" /><path d="M53 102L71 102" fill="none" stroke="#acb6b7" stroke-width="1" stroke-linecap="square" /><path d="M53 126L71 126" fill="none" stroke="#acb6b7" stroke-width="1" stroke-linecap="square" /><path d="M53 150L71 150" fill="none" stroke="#acb6b7" stroke-width="1" stroke-linecap="square" /><path d="M53 174L71 174" fill="none" stroke="#acb6b7" stroke-width="1" stroke-linecap="square" /><rect x="181" y="57" width="26" height="148" fill="#17242b" stroke="#a9b8bb" stroke-width="2" /><rect x="186" y="67" width="16" height="128" fill="#35424b" stroke="#a9b8bb" stroke-width="1" /><path d="M185 78L203 78" fill="none" stroke="#acb6b7" stroke-width="1" stroke-linecap="square" /><path d="M185 102L203 102" fill="none" stroke="#acb6b7" stroke-width="1" stroke-linecap="square" /><path d="M185 126L203 126" fill="none" stroke="#acb6b7" stroke-width="1" stroke-linecap="square" /><path d="M185 150L203 150" fill="none" stroke="#acb6b7" stroke-width="1" stroke-linecap="square" /><path d="M185 174L203 174" fill="none" stroke="#acb6b7" stroke-width="1" stroke-linecap="square" /></g>
    <g transform="translate(0 14)" opacity=".94"><polygon points="128,30 184,44 205,72 205,192 182,219 74,219 51,192 51,72 72,44" fill="#17242b" stroke="#a9b8bb" stroke-width="2.4" stroke-linejoin="bevel" /></g>
    <g filter="url(#vehicle-shadow)"><rect x="49" y="57" width="26" height="148" fill="#17242b" stroke="#a9b8bb" stroke-width="2" /><rect x="54" y="67" width="16" height="128" fill="#35424b" stroke="#a9b8bb" stroke-width="1" /><path d="M53 78L71 78" fill="none" stroke="#acb6b7" stroke-width="1" stroke-linecap="square" /><path d="M53 102L71 102" fill="none" stroke="#acb6b7" stroke-width="1" stroke-linecap="square" /><path d="M53 126L71 126" fill="none" stroke="#acb6b7" stroke-width="1" stroke-linecap="square" /><path d="M53 150L71 150" fill="none" stroke="#acb6b7" stroke-width="1" stroke-linecap="square" /><path d="M53 174L71 174" fill="none" stroke="#acb6b7" stroke-width="1" stroke-linecap="square" /><rect x="181" y="57" width="26" height="148" fill="#17242b" stroke="#a9b8bb" stroke-width="2" /><rect x="186" y="67" width="16" height="128" fill="#35424b" stroke="#a9b8bb" stroke-width="1" /><path d="M185 78L203 78" fill="none" stroke="#acb6b7" stroke-width="1" stroke-linecap="square" /><path d="M185 102L203 102" fill="none" stroke="#acb6b7" stroke-width="1" stroke-linecap="square" /><path d="M185 126L203 126" fill="none" stroke="#acb6b7" stroke-width="1" stroke-linecap="square" /><path d="M185 150L203 150" fill="none" stroke="#acb6b7" stroke-width="1" stroke-linecap="square" /><path d="M185 174L203 174" fill="none" stroke="#acb6b7" stroke-width="1" stroke-linecap="square" /><polygon points="128,30 184,44 205,72 205,192 182,219 74,219 51,192 51,72 72,44" fill="url(#body-grad)" stroke="#a9b8bb" stroke-width="2.2" stroke-linejoin="bevel" /><rect x="79" y="56" width="98" height="149" fill="#17242b" stroke="#a9b8bb" stroke-width="2" /><rect x="91" y="66" width="74" height="126" fill="#71818a" stroke="#17242b" stroke-width="2" /><rect x="70" y="62" width="11" height="147" fill="#acb6b7" stroke="#17242b" stroke-width="1" /><rect x="175" y="62" width="11" height="147" fill="#acb6b7" stroke="#17242b" stroke-width="1" /><rect x="73" y="72" width="110" height="8" fill="#35424b" stroke="#a9b8bb" stroke-width="1.5" /><rect x="73" y="129" width="110" height="8" fill="#35424b" stroke="#a9b8bb" stroke-width="1.5" /><rect x="73" y="184" width="110" height="8" fill="#35424b" stroke="#a9b8bb" stroke-width="1.5" /><rect x="103" y="91" width="50" height="75" fill="#35424b" stroke="#a9b8bb" stroke-width="2" /><rect x="93" y="75" width="70" height="95" fill="#17242b" stroke="#a9b8bb" stroke-width="2" /><rect x="102" y="84" width="52" height="76" fill="#71818a" stroke="#a9b8bb" stroke-width="1.5" /><path d="M108 100L148 100" fill="none" stroke="#17242b" stroke-width="2" stroke-linecap="square" /><path d="M108 116L148 116" fill="none" stroke="#17242b" stroke-width="2" stroke-linecap="square" /><path d="M108 132L148 132" fill="none" stroke="#17242b" stroke-width="2" stroke-linecap="square" /><path d="M108 148L148 148" fill="none" stroke="#17242b" stroke-width="2" stroke-linecap="square" /><rect x="121" y="40" width="14" height="34" fill="#f4a24d" stroke="#17242b" stroke-width="1.5" /><rect x="70" y="95" width="6" height="6" fill="#f4a24d" stroke="#17242b" stroke-width="1" /><rect x="70" y="158" width="6" height="6" fill="#f4a24d" stroke="#17242b" stroke-width="1" /><rect x="184" y="95" width="6" height="6" fill="#f4a24d" stroke="#17242b" stroke-width="1" /><rect x="184" y="158" width="6" height="6" fill="#f4a24d" stroke="#17242b" stroke-width="1" /><path d="M89 61L89 195" fill="none" stroke="#a9b8bb" stroke-width="1.2" stroke-linecap="square" /><path d="M167 61L167 195" fill="none" stroke="#a9b8bb" stroke-width="1.2" stroke-linecap="square" /><path d="M103 175L107 179" fill="none" stroke="#a9b8bb" stroke-width="0.8" stroke-linecap="square" opacity=".48"/><path d="M117 175L121 179" fill="none" stroke="#a9b8bb" stroke-width="0.8" stroke-linecap="square" opacity=".48"/><path d="M131 175L135 179" fill="none" stroke="#a9b8bb" stroke-width="0.8" stroke-linecap="square" opacity=".48"/><path d="M145 175L149 179" fill="none" stroke="#a9b8bb" stroke-width="0.8" stroke-linecap="square" opacity=".48"/></g>
  </g></svg>