<svg xmlns="http://www.w3.org/2000/svg" viewBox="0 0 256 256" width="256" height="256" role="img" aria-label="crater terrain variant 1"><title>crater · variant 1</title><defs><clipPath id="hex"><polygon points="128.0000,0.0000 238.8513,64.0000 238.8513,192.0000 128.0000,256.0000 17.1487,192.0000 17.1487,64.0000"/></clipPath></defs><g clip-path="url(#hex)"><path d="M126.5 175.7l2.2 0.6" fill="none" stroke="#aab4a0" stroke-width="0.7" stroke-linejoin="round" stroke-linecap="round" opacity=".34"/><path d="M94.0 146.6l5.0 -0.8" fill="none" stroke="#aab4a0" stroke-width="0.7" stroke-linejoin="round" stroke-linecap="round" opacity=".34"/><path d="M154.0 84.2l3.5 -0.0" fill="none" stroke="#aab4a0" stroke-width="0.7" stroke-linejoin="round" stroke-linecap="round" opacity=".34"/><path d="M109.9 176.1l1.0 0.6" fill="none" stroke="#aab4a0" stroke-width="0.7" stroke-linejoin="round" stroke-linecap="round" opacity=".34"/><path d="M159.1 93.6l1.1 0.6" fill="none" stroke="#aab4a0" stroke-width="0.7" stroke-linejoin="round" stroke-linecap="round" opacity=".34"/><path d="M114.2 139.8l1.0 -0.7" fill="none" stroke="#aab4a0" stroke-width="0.7" stroke-linejoin="round" stroke-linecap="round" opacity=".34"/><path d="M181.2 83.8l2.9 0.7" fill="none" stroke="#aab4a0" stroke-width="0.7" stroke-linejoin="round" stroke-linecap="round" opacity=".34"/><path d="M70.7 161.7l1.8 0.2" fill="none" stroke="#aab4a0" stroke-width="0.7" stroke-linejoin="round" stroke-linecap="round" opacity=".34"/><path d="M91.2 173.7l2.1 0.4" fill="none" stroke="#aab4a0" stroke-width="0.7" stroke-linejoin="round" stroke-linecap="round" opacity=".34"/><path d="M129.2 172.2l1.7 0.6" fill="none" stroke="#aab4a0" stroke-width="0.7" stroke-linejoin="round" stroke-linecap="round" opacity=".34"/><path d="M107.1 119.0l3.5 -0.7" fill="none" stroke="#aab4a0" stroke-width="0.7" stroke-linejoin="round" stroke-linecap="round" opacity=".34"/><path d="M86.7 93.3l3.9 0.4" fill="none" stroke="#aab4a0" stroke-width="0.7" stroke-linejoin="round" stroke-linecap="round" opacity=".34"/><path d="M70.1 110.2l1.1 0.7" fill="none" stroke="#aab4a0" stroke-width="0.7" stroke-linejoin="round" stroke-linecap="round" opacity=".34"/><path d="M160.6 146.6l2.0 -0.4" fill="none" stroke="#aab4a0" stroke-width="0.7" stroke-linejoin="round" stroke-linecap="round" opacity=".34"/><path d="M149.1 185.7l3.4 -0.9" fill="none" stroke="#aab4a0" stroke-width="0.7" stroke-linejoin="round" stroke-linecap="round" opacity=".34"/><path d="M174.3 125.4l2.3 0.9" fill="none" stroke="#aab4a0" stroke-width="0.7" stroke-linejoin="round" stroke-linecap="round" opacity=".34"/><path d="M73.1 115.6l4.6 -0.9" fill="none" stroke="#aab4a0" stroke-width="0.7" stroke-linejoin="round" stroke-linecap="round" opacity=".34"/><path d="M170.8 181.4l3.7 -0.6" fill="none" stroke="#aab4a0" stroke-width="0.7" stroke-linejoin="round" stroke-linecap="round" opacity=".34"/><path d="M140.6 105.8l5.0 0.8" fill="none" stroke="#aab4a0" stroke-width="0.7" stroke-linejoin="round" stroke-linecap="round" opacity=".34"/><path d="M134.8 110.4l2.4 -0.5" fill="none" stroke="#aab4a0" stroke-width="0.7" stroke-linejoin="round" stroke-linecap="round" opacity=".34"/><path d="M176.1 116.2l4.6 1.0" fill="none" stroke="#aab4a0" stroke-width="0.7" stroke-linejoin="round" stroke-linecap="round" opacity=".34"/><path d="M99.0 154.2l2.5 -0.9" fill="none" stroke="#aab4a0" stroke-width="0.7" stroke-linejoin="round" stroke-linecap="round" opacity=".34"/><path d="M147.9 114.8l1.9 -0.8" fill="none" stroke="#aab4a0" stroke-width="0.7" stroke-linejoin="round" stroke-linecap="round" opacity=".34"/><path d="M170.6 185.0l3.1 -0.1" fill="none" stroke="#aab4a0" stroke-width="0.7" stroke-linejoin="round" stroke-linecap="round" opacity=".34"/><path d="M125.5 107.2l2.1 0.8" fill="none" stroke="#aab4a0" stroke-width="0.7" stroke-linejoin="round" stroke-linecap="round" opacity=".34"/><path d="M129.9 173.1l3.4 0.7" fill="none" stroke="#aab4a0" stroke-width="0.7" stroke-linejoin="round" stroke-linecap="round" opacity=".34"/><path d="M157.8 172.6l2.2 -0.9" fill="none" stroke="#aab4a0" stroke-width="0.7" stroke-linejoin="round" stroke-linecap="round" opacity=".34"/><path d="M109.5 82.1l4.2 -0.1" fill="none" stroke="#aab4a0" stroke-width="0.7" stroke-linejoin="round" stroke-linecap="round" opacity=".34"/><g opacity=".75"><path d="M128 70q46-2 61 42t-15 65-63 20-53-42 5-65 65-20Z" fill="#72796d" stroke="#a5aa99" stroke-width="3" stroke-linejoin="round" /><path d="M127 94q29-6 43 22t-6 48-49 10-35-34 12-41 35-5Z" fill="#465b55" stroke="#9ca898" stroke-width="2" stroke-linejoin="round" /><path d="M126 114q18-3 22 17t-14 24-28-17 20-24Z" fill="#53675d" stroke="none" stroke-width="1" stroke-linejoin="round" /></g></g></svg>