<svg xmlns="http://www.w3.org/2000/svg" viewBox="0 0 256 256" width="256" height="256" role="img" aria-label="ridge terrain variant 0"><title>ridge · variant 0</title><defs><clipPath id="hex"><polygon points="128.0000,0.0000 238.8513,64.0000 238.8513,192.0000 128.0000,256.0000 17.1487,192.0000 17.1487,64.0000"/></clipPath></defs><g clip-path="url(#hex)"><path d="M116.2 149.0l4.1 0.7" fill="none" stroke="#aab4a0" stroke-width="0.7" stroke-linejoin="round" stroke-linecap="round" opacity=".34"/><path d="M75.0 73.0l2.2 -1.0" fill="none" stroke="#aab4a0" stroke-width="0.7" stroke-linejoin="round" stroke-linecap="round" opacity=".34"/><path d="M118.9 156.5l1.1 0.9" fill="none" stroke="#aab4a0" stroke-width="0.7" stroke-linejoin="round" stroke-linecap="round" opacity=".34"/><path d="M90.8 105.7l4.2 0.2" fill="none" stroke="#aab4a0" stroke-width="0.7" stroke-linejoin="round" stroke-linecap="round" opacity=".34"/><path d="M87.7 133.3l2.5 0.6" fill="none" stroke="#aab4a0" stroke-width="0.7" stroke-linejoin="round" stroke-linecap="round" opacity=".34"/><path d="M99.6 97.8l2.2 0.7" fill="none" stroke="#aab4a0" stroke-width="0.7" stroke-linejoin="round" stroke-linecap="round" opacity=".34"/><path d="M185.1 121.3l4.5 0.4" fill="none" stroke="#aab4a0" stroke-width="0.7" stroke-linejoin="round" stroke-linecap="round" opacity=".34"/><path d="M143.3 155.9l4.2 -0.1" fill="none" stroke="#aab4a0" stroke-width="0.7" stroke-linejoin="round" stroke-linecap="round" opacity=".34"/><path d="M103.1 176.8l2.5 0.6" fill="none" stroke="#aab4a0" stroke-width="0.7" stroke-linejoin="round" stroke-linecap="round" opacity=".34"/><path d="M118.4 154.2l4.0 -0.7" fill="none" stroke="#aab4a0" stroke-width="0.7" stroke-linejoin="round" stroke-linecap="round" opacity=".34"/><path d="M134.9 147.4l1.5 -0.7" fill="none" stroke="#aab4a0" stroke-width="0.7" stroke-linejoin="round" stroke-linecap="round" opacity=".34"/><path d="M96.3 80.6l4.3 -1.0" fill="none" stroke="#aab4a0" stroke-width="0.7" stroke-linejoin="round" stroke-linecap="round" opacity=".34"/><path d="M107.2 180.6l1.3 0.3" fill="none" stroke="#aab4a0" stroke-width="0.7" stroke-linejoin="round" stroke-linecap="round" opacity=".34"/><path d="M129.9 70.3l3.6 0.7" fill="none" stroke="#aab4a0" stroke-width="0.7" stroke-linejoin="round" stroke-linecap="round" opacity=".34"/><path d="M118.4 108.4l3.8 1.0" fill="none" stroke="#aab4a0" stroke-width="0.7" stroke-linejoin="round" stroke-linecap="round" opacity=".34"/><path d="M125.2 127.3l3.4 -0.7" fill="none" stroke="#aab4a0" stroke-width="0.7" stroke-linejoin="round" stroke-linecap="round" opacity=".34"/><path d="M181.6 144.6l2.3 -0.3" fill="none" stroke="#aab4a0" stroke-width="0.7" stroke-linejoin="round" stroke-linecap="round" opacity=".34"/><path d="M126.0 115.3l4.5 0.2" fill="none" stroke="#aab4a0" stroke-width="0.7" stroke-linejoin="round" stroke-linecap="round" opacity=".34"/><path d="M165.3 110.2l1.5 0.4" fill="none" stroke="#aab4a0" stroke-width="0.7" stroke-linejoin="round" stroke-linecap="round" opacity=".34"/><path d="M83.9 132.0l2.1 -0.6" fill="none" stroke="#aab4a0" stroke-width="0.7" stroke-linejoin="round" stroke-linecap="round" opacity=".34"/><path d="M146.4 87.0l3.1 -0.5" fill="none" stroke="#aab4a0" stroke-width="0.7" stroke-linejoin="round" stroke-linecap="round" opacity=".34"/><path d="M157.8 107.8l2.4 -0.6" fill="none" stroke="#aab4a0" stroke-width="0.7" stroke-linejoin="round" stroke-linecap="round" opacity=".34"/><path d="M134.1 179.6l2.9 -0.2" fill="none" stroke="#aab4a0" stroke-width="0.7" stroke-linejoin="round" stroke-linecap="round" opacity=".34"/><path d="M150.0 136.6l3.0 0.4" fill="none" stroke="#aab4a0" stroke-width="0.7" stroke-linejoin="round" stroke-linecap="round" opacity=".34"/><path d="M89.0 81.2l4.1 0.5" fill="none" stroke="#aab4a0" stroke-width="0.7" stroke-linejoin="round" stroke-linecap="round" opacity=".34"/><path d="M168.6 147.6l1.2 0.1" fill="none" stroke="#aab4a0" stroke-width="0.7" stroke-linejoin="round" stroke-linecap="round" opacity=".34"/><path d="M125.5 184.5l3.4 0.4" fill="none" stroke="#aab4a0" stroke-width="0.7" stroke-linejoin="round" stroke-linecap="round" opacity=".34"/><path d="M78.0 76.4l3.1 -0.5" fill="none" stroke="#aab4a0" stroke-width="0.7" stroke-linejoin="round" stroke-linecap="round" opacity=".34"/><g transform="rotate(-9 128 128)" opacity=".72"><path d="M53 164 80 135l25 10 26-30 28 13 29-37 22 24-25 27-28 1-23 22-32-5-27 24Z" fill="#767d70" stroke="#a4ad9b" stroke-width="2" stroke-linejoin="round" /><path d="M59 173 83 149l24 10 25-26 27 11 29-35" fill="none" stroke="#c4c4ae" stroke-width="2" stroke-linejoin="round" stroke-linecap="round" /><path d="M71 183l24-13m43 11 21-24" fill="none" stroke="#42564f" stroke-width="1.5" stroke-linejoin="round" stroke-linecap="round" /></g></g></svg>