<?xml version="1.0" encoding="UTF-8"?>
<svg xmlns="http://www.w3.org/2000/svg" width="1024" height="768" viewBox="0 0 512 384" role="img" aria-label="PHANTOM PLATFORM — PIXEL / STRATEGY DISPLAY library view"><style>
  .paper{fill:#e6dfb8} .ink{fill:#1b2930} .accent-fill{fill:#e7a947}
  .card{fill:#e6dfb8;stroke:#1b2930;stroke-width:1.4} .rule{fill:none;stroke:#1b2930;stroke-width:1}
  .title,.subtitle,.label,.index,.footer{fill:#1b2930;font-family:Arial,Helvetica,sans-serif}
  .title{font-size:35px;font-weight:800;letter-spacing:2px}.subtitle{font-size:16px;letter-spacing:2px}.label{font-size:15px;font-weight:700;letter-spacing:.7px}.index{font-size:15px;font-weight:800}.footer{font-size:14px;letter-spacing:1px}
  .unit{stroke:#1b2930;stroke-width:2.5;stroke-linecap:square;stroke-linejoin:miter}
  .unit *{vector-effect:non-scaling-stroke}
  .body{fill:#e6dfb8} .shell{fill:#6c8175} .turret{fill:#e6dfb8} .track{fill:#1b2930} .port{fill:#e6dfb8} .accent{fill:#e7a947}
  .detail{fill:none;stroke:#1b2930;stroke-width:1.5}.accent-line{fill:none;stroke:#e7a947;stroke-width:3}
  .inf-figure{fill:#6c8175;stroke:#1b2930;stroke-width:2.4;stroke-linejoin:round}
  .inf-head,.inf-rifle{fill:#1b2930;stroke:#1b2930;stroke-width:1.5;stroke-linejoin:round}
  .inf-detail{fill:none;stroke:#1b2930;stroke-width:1.6;stroke-linecap:round}
  .inf-marker{fill:#1b2930;stroke:#e6dfb8;stroke-width:2.5;paint-order:stroke fill;font-family:Arial,Helvetica,sans-serif;font-size:48px;font-weight:800;text-anchor:middle}
</style><g transform="translate(91 26) scale(3.4)"><g class="unit" aria-label="PHANTOM PLATFORM"><g transform="translate(50 0) scale(0.76 1) translate(-50 0)"><rect class="track" x="6" y="14" width="18" height="74" rx="0"/><rect class="track" x="76" y="14" width="18" height="74" rx="0"/><polygon class="shell" points="31,10 69,10 69,16 78,16 80,25 80,80 73,87 27,87 20,80 20,25 22,16 31,16"/><path class="detail" d="M26 26L50 19L74 26M27 78L50 84L73 78"/><path class="body" d="M24 34L35 32V54L26 60Z"/><path class="body" d="M65 34L76 32V54L67 60Z"/><rect class="accent" x="35" y="76" width="30" height="4" rx="0"/><rect class="accent" x="25" y="26" width="7" height="5" rx="0"/><rect class="accent" x="68" y="26" width="7" height="5" rx="0"/><rect class="port" x="45" y="73" width="10" height="10" rx="0"/><path class="turret" d="M35 38L42 30H58L65 38V59H35Z"/><rect class="accent" x="44" y="35" width="12" height="12" rx="0"/></g></g></g></svg>
