<?xml version="1.0" encoding="UTF-8"?>
<svg xmlns="http://www.w3.org/2000/svg" width="1024" height="768" viewBox="0 0 512 384" role="img" aria-label="GUARD TANK — INDUSTRIAL / FIELD EQUIPMENT three-quarter view">
  <style>
  .ground-shadow{fill:#272a28;opacity:.17}.person-shadow{fill:#272a28;opacity:.22}
  .right-face{fill:#80877f;stroke:#272a28;stroke-width:3}.rear-face{fill:#272a28;stroke:#272a28;stroke-width:3}
  .track-side,.track-rear{fill:#272a28;stroke:#272a28;stroke-width:2}.track-line{fill:none;stroke:#e1ddd2;stroke-width:1.5;opacity:.65}
  .upper-top{fill:#e1ddd2;stroke:#272a28;stroke-width:3}.upper-side{fill:#80877f;stroke:#272a28;stroke-width:3}
  .hover-glow,.thruster{fill:none;stroke:#a58b64;stroke-width:4;stroke-linecap:round}
  .projected-top{stroke:#272a28;stroke-width:2.4;stroke-linejoin:round}.projected-top *{vector-effect:non-scaling-stroke}
  .body{fill:#e1ddd2}.shell{fill:#80877f}.turret{fill:#e1ddd2}.track{fill:#272a28}.port{fill:#e1ddd2}.accent{fill:#a58b64}
  .detail{fill:none;stroke:#272a28;stroke-width:1.6}.accent-line{fill:none;stroke:#a58b64;stroke-width:3}
  .inf-figure{fill:#80877f;stroke:#272a28;stroke-width:2.4}.inf-head,.inf-rifle{fill:#272a28;stroke:#272a28;stroke-width:1.5}
  .inf-detail{fill:none;stroke:#272a28;stroke-width:1.6}.person-depth .inf-figure{fill:#272a28}.person-depth .inf-head,.person-depth .inf-rifle{fill:#272a28}
  .library-marker{fill:#272a28;stroke:#e1ddd2;stroke-width:3;paint-order:stroke fill;font:800 78px Arial,Helvetica,sans-serif;text-anchor:middle}
  </style><ellipse class="ground-shadow" cx="263" cy="326" rx="174" ry="22"/><polygon class="right-face" points="355.2,134.8 289.2,247.0 289.2,290.0 355.2,177.8"/><polygon class="rear-face" points="289.2,247.0 122.8,223.6 122.8,266.6 289.2,290.0"/><polygon class="track-side" points="217.4,139.3 165.4,227.8 165.4,270.8 217.4,182.3"/><polygon class="track-rear" points="165.4,227.8 123.8,221.9 123.8,264.9 165.4,270.8"/><path class="track-line" d="M205.4 159.8L200.4 168.3m0 0v43"/><path class="track-line" d="M190.4 185.3L185.4 193.8m0 0v43"/><path class="track-line" d="M175.4 210.8L170.4 219.3m0 0v43"/><polygon class="track-side" points="342.2,156.9 290.2,245.3 290.2,288.3 342.2,199.9"/><polygon class="track-rear" points="290.2,245.3 248.6,239.4 248.6,282.4 290.2,288.3"/><path class="track-line" d="M330.2 177.3L325.2 185.8m0 0v43"/><path class="track-line" d="M315.2 202.8L310.2 211.3m0 0v43"/><path class="track-line" d="M300.2 228.3L295.2 236.8m0 0v43"/><g class="projected-top" transform="matrix(3.2 .45 -1 1.7 130 70)"><g class="unit" aria-label="GUARD TANK"><g transform="translate(50 0) scale(0.67 1) translate(-50 0)"><rect class="track" x="11" y="14" width="17" height="74" rx="2"/><rect class="track" x="72" y="14" width="17" height="74" rx="2"/><polygon class="shell" points="33,13 67,13 77,23 77,78 69,87 31,87 23,78 23,23"/><path class="detail" d="M30 26L50 19L70 26M31 78L50 84L69 78"/><path class="body" d="M28 34L39 32V54L30 60Z"/><path class="body" d="M61 34L72 32V54L63 60Z"/><rect class="accent" x="39" y="76" width="22" height="4" rx="0"/><rect class="track" x="30" y="18" width="12" height="7" rx="0"/><rect class="track" x="58" y="18" width="12" height="7" rx="0"/><path class="accent-line" d="M44 70L50 74L56 70"/><rect class="body" x="47" y="7" width="6" height="37" rx="1"/><rect class="track" x="46" y="7" width="8" height="3" rx="0"/><path class="turret" d="M30 39L38 32H62L70 39V61L62 68H38L30 61Z"/><rect class="port" x="45" y="47" width="10" height="10" rx="2"/></g></g></g></svg>
